<?xml version="1.0" standalone="no"?>
<!DOCTYPE svg PUBLIC "-//W3C//DTD SVG 20010904//EN"
 "http://www.w3.org/TR/2001/REC-SVG-20010904/DTD/svg10.dtd">
<svg version="1.0" xmlns="http://www.w3.org/2000/svg"
 width="300.000000pt" height="300.000000pt" viewBox="0 0 300.000000 300.000000"
 preserveAspectRatio="xMidYMid meet">
<metadata>
Created by potrace 1.14, written by Peter Selinger 2001-2017
</metadata>
<g transform="translate(0.000000,300.000000) scale(0.100000,-0.100000)"
fill="#000000" stroke="none">
<path d="M1350 2993 c-190 -28 -339 -66 -420 -108 -16 -8 -30 -14 -30 -11 0 4
-78 -35 -165 -83 -168 -92 -382 -299 -500 -485 -84 -132 -178 -357 -199 -477
-30 -171 -34 -216 -31 -359 2 -135 8 -186 39 -335 13 -63 70 -214 119 -315 27
-56 108 -184 119 -188 4 -2 8 -8 8 -14 0 -14 91 -120 170 -197 66 -64 211
-179 240 -189 8 -3 28 -15 45 -26 32 -22 159 -85 210 -103 17 -6 39 -14 50
-19 31 -11 34 -12 137 -38 54 -14 121 -28 150 -32 68 -10 327 -11 399 -2 200
26 417 102 589 208 245 151 436 359 563 615 42 85 101 240 111 295 3 14 12 61
21 105 23 108 27 363 9 480 -32 208 -99 392 -212 577 -22 37 -45 73 -51 80 -6
7 -32 40 -58 73 -53 66 -146 161 -213 215 -47 39 -148 110 -155 110 -2 0 -21
12 -42 26 -61 41 -252 125 -317 139 -10 3 -42 11 -70 19 -28 8 -70 17 -94 21
-23 4 -54 9 -70 11 -35 7 -320 12 -352 7z"/>
</g>
</svg>
